<svg id="SvgjsSvg1015" width="288" height="288" xmlns="http://www.w3.org/2000/svg" version="1.1" xmlnsXlink="http://www.w3.org/1999/xlink" xmlns:svgjs="http://svgjs.com/svgjs"><defs id="SvgjsDefs1016"></defs><g id="SvgjsG1017"><svg xmlns="http://www.w3.org/2000/svg" viewBox="0 0 128 128" width="288" height="288"><g data-name="Layer 2" fill="#000000" class="color000 svgShape"><path fill="#2ceaa1" d="M53.57,91.0556a17.2579,17.2579,0,1,0,0,24.3937A17.2793,17.2793,0,0,0,53.57,91.0556Zm-6.0513,18.7985a5.39,5.39,0,0,1-3.8343,1.588v1.1619a1.9365,1.9365,0,0,1-1.9365,1.9365h-.7747a1.9365,1.9365,0,0,1-1.9365-1.9365v-1.1619a5.4149,5.4149,0,0,1-4.556-2.4785A1.9323,1.9323,0,0,1,36.14,106.02h.0061a1.847,1.847,0,0,1,1.5778.8191,1.5515,1.5515,0,0,0,1.3133.73h4.6477a1.5531,1.5531,0,0,0,1.5269-1.8137,1.6167,1.6167,0,0,0-1.6211-1.2847H39.2879a5.6027,5.6027,0,0,1-5.6684-5.656,5.4216,5.4216,0,0,1,5.4173-5.1885v-1.162a1.9365,1.9365,0,0,1,1.9365-1.9365h.7747a1.9365,1.9365,0,0,1,1.9365,1.9365v1.162a5.4148,5.4148,0,0,1,4.556,2.4784,1.9323,1.9323,0,0,1-1.6588,2.9438h-.0061a1.847,1.847,0,0,1-1.5778-.8191,1.5517,1.5517,0,0,0-1.3133-.73H39.0368A1.5532,1.5532,0,0,0,37.51,99.3129a1.6169,1.6169,0,0,0,1.6211,1.2847h4.3025a5.6027,5.6027,0,0,1,5.6683,5.6559A5.3878,5.3878,0,0,1,47.5188,109.8541Z" class="colorffba17 svgShape"></path><rect width="41.991" height="6" x="28.022" y="24.005" fill="#2ceaa1" rx="2.999" class="colorffba17 svgShape"></rect><path fill="#2ceaa1" d="M120,43H74.01a3.9989,3.9989,0,0,0-4,4v73a3.9989,3.9989,0,0,0,4,4H120a3.9989,3.9989,0,0,0,4-4V47A3.9989,3.9989,0,0,0,120,43ZM77.01,52a2.0059,2.0059,0,0,1,2-2H114a1.9994,1.9994,0,0,1,2,2V68a1.9931,1.9931,0,0,1-2,2H79.01a1.9994,1.9994,0,0,1-2-2Zm10,62a1.9994,1.9994,0,0,1-2,2h-6a1.9994,1.9994,0,0,1-2-2v-6a2.0059,2.0059,0,0,1,2-2h6a2.0059,2.0059,0,0,1,2,2Zm0-14a1.9994,1.9994,0,0,1-2,2h-6a1.9994,1.9994,0,0,1-2-2V94a2.0059,2.0059,0,0,1,2-2h6a2.0059,2.0059,0,0,1,2,2Zm0-14a1.9994,1.9994,0,0,1-2,2h-6a1.9994,1.9994,0,0,1-2-2V80a2.0059,2.0059,0,0,1,2-2h6a2.0059,2.0059,0,0,1,2,2Zm14,28a1.9994,1.9994,0,0,1-2,2h-6a1.9931,1.9931,0,0,1-2-2v-6a1.9994,1.9994,0,0,1,2-2h6a2.0059,2.0059,0,0,1,2,2Zm0-14a1.9994,1.9994,0,0,1-2,2h-6a1.9931,1.9931,0,0,1-2-2V94a1.9994,1.9994,0,0,1,2-2h6a2.0059,2.0059,0,0,1,2,2Zm0-14a1.9994,1.9994,0,0,1-2,2h-6a1.9931,1.9931,0,0,1-2-2V80a1.9994,1.9994,0,0,1,2-2h6a2.0059,2.0059,0,0,1,2,2ZM117,114a1.9931,1.9931,0,0,1-2,2h-8a1.9994,1.9994,0,0,1-2-2V94a2.0059,2.0059,0,0,1,2-2h8a1.9994,1.9994,0,0,1,2,2Zm0-28a1.9931,1.9931,0,0,1-2,2h-8a1.9994,1.9994,0,0,1-2-2V80a2.0059,2.0059,0,0,1,2-2h8a1.9994,1.9994,0,0,1,2,2Z" class="colorffba17 svgShape"></path><path fill="#063c27" d="M80.4182,8.3863c-.0034-.32-.0117-.6435-.0259-.9667a1,1,0,1,1,1.9971-.0879q.0226.52.0278,1.0331a1,1,0,0,1-.9892,1.0107h-.01A1,1,0,0,1,80.4182,8.3863Zm.0537,7.3483a1.8021,1.8021,0,0,0,.23.0205.9978.9978,0,0,0,.9795-.76c.17-.71.31-1.45.43-2.19a1.0024,1.0024,0,0,0-1.979-.32v.0205c-.1.66-.23,1.34-.4,2.0194A1.0131,1.0131,0,0,0,80.4719,15.7346Zm-2.5988,5.87a1.0455,1.0455,0,0,0,.49.12.9943.9943,0,0,0,.8794-.51c.36-.6406.7-1.3105.9995-1.99a1.0574,1.0574,0,0,0,.09-.42,1.0017,1.0017,0,0,0-.59-.9,1.0289,1.0289,0,0,0-1.3294.5,17.2284,17.2284,0,0,1-.9195,1.83A1.0139,1.0139,0,0,0,77.8731,21.6045ZM8.8479,59.7833a.9827.9827,0,0,0,.41.09.9986.9986,0,0,0,.91-.59c.24-.52.5-1.1006.83-1.8007a.9944.9944,0,0,0-.48-1.33,1.0173,1.0173,0,0,0-1.3294.48c-.3.65-.6,1.29-.8394,1.82A.9991.9991,0,0,0,8.8479,59.7833ZM20.2221,38.674a.9892.9892,0,0,0,.53.1494,1.0012,1.0012,0,0,0,.85-.46c.35-.54.71-1.1093,1.08-1.67a.9929.9929,0,0,0-.3-1.38,1.0182,1.0182,0,0,0-1.3792.29c-.3.46-.63.97-1.0595,1.65a.1288.1288,0,0,0-.03.04,1.0319,1.0319,0,0,0-.16.54A1.0083,1.0083,0,0,0,20.2221,38.674ZM11.3965,54.3529a.9877.9877,0,0,0,1.3391-.4394c.31-.61.61-1.21.91-1.77a1.0256,1.0256,0,0,0,.06-.7695.9714.9714,0,0,0-.49-.58,1.014,1.014,0,0,0-1.349.43c-.27.52-.59,1.14-.91,1.79a.8825.8825,0,0,0-.11.45A.9875.9875,0,0,0,11.3965,54.3529Zm2.7584-5.33a.9879.9879,0,0,0,1.36-.39c.31-.57.6394-1.15.9693-1.74a1.0075,1.0075,0,0,0-.38-1.3593,1.0275,1.0275,0,0,0-1.3695.38c-.33.59-.6593,1.18-.9795,1.76a.9645.9645,0,0,0-.12.47A.9937.9937,0,0,0,14.1549,49.0231Zm2.9487-5.2293a.9151.9151,0,0,0,.51.14,1.0022,1.0022,0,0,0,.8594-.48c.3-.5107.6594-1.12,1.02-1.71a1.0193,1.0193,0,0,0,.12-.7607.9691.9691,0,0,0-.45-.6093,1.0228,1.0228,0,0,0-1.3792.33c-.38.64-.72,1.1992-1.03,1.73a.912.912,0,0,0-.14.51A.983.983,0,0,0,17.1036,43.7938ZM125,47.0037V120a5.0045,5.0045,0,0,1-4.9975,5H23.756a17.3531,17.3531,0,0,1-14.5782-7.6764C-10.6607,87.2964,23.08,39.0519,29.317,30.6085a3.9872,3.9872,0,0,1-.53-6.9195c-6.81-5.1545-7.29-12.85-7.1484-16.0937a4.73,4.73,0,0,1,3.1723-4.2859A4.8031,4.8031,0,0,1,30.08,4.58c2.5608,2.7908,4.9961,4.6169,7.0434,5.2829,3.0859,1.0029,6.2376-.2285,8.34-1.4394a7.0628,7.0628,0,0,1,7.1082,0c2.102,1.2109,5.2533,2.4413,8.34,1.4394,2.0473-.666,4.4827-2.4921,7.0429-5.2829a4.8062,4.8062,0,0,1,5.27-1.2705,4.7287,4.7287,0,0,1,3.1718,4.2859c.1425,3.2431-.3371,10.939-7.1481,16.0936a3.9875,3.9875,0,0,1-.5363,6.9231c1.3972,1.9088,4.271,5.9656,7.5979,11.3919h43.6927A5.0045,5.0045,0,0,1,125,47.0037ZM31.32,23.0048H66.7151c7.0632-4.3773,7.8537-11.4613,7.6841-15.3216A2.7685,2.7685,0,0,0,72.54,5.1882a2.847,2.847,0,0,0-3.1127.7451c-2.8321,3.0858-5.4894,5.0486-7.8974,5.8318-3.7857,1.23-7.5021-.1953-9.9545-1.6074a5.0765,5.0765,0,0,0-5.1152,0,15.3284,15.3284,0,0,1-5.5135,1.9741,81.9289,81.9289,0,0,0,8.352,3.055,1,1,0,0,1-.5622,1.92c-.4958-.1454-12.1845-3.6083-16.8535-8.0479a31.5908,31.5908,0,0,1-3.2752-3.1254,2.8462,2.8462,0,0,0-3.1122-.7451,2.7684,2.7684,0,0,0-1.86,2.495C23.4659,11.5435,24.2568,18.6275,31.32,23.0048Zm-2.2976,4a2.0017,2.0017,0,0,0,1.999,2H67.0143a2,2,0,0,0,0-4H31.021A2.0017,2.0017,0,0,0,29.022,27.0046ZM32.262,123a21.9958,21.9958,0,0,1,9.1434-41.998h7.6325a22.0136,22.0136,0,0,1,19.9754,12.819V47.0037a5.0017,5.0017,0,0,1,4.95-4.995c-3.5972-5.78-6.5449-9.7992-7.4479-11.0043H59.45a44.0767,44.0767,0,0,1,5.8339,7.485,1,1,0,1,1-1.714,1.0293,44.4,44.4,0,0,0-6.95-8.5143H42.8283a44.4858,44.4858,0,0,0-6.95,8.5143,1,1,0,1,1-1.714-1.0293,44.0615,44.0615,0,0,1,5.8339-7.485H31.52C27.85,35.9268-8.7883,86.5036,10.845,116.22A15.3584,15.3584,0,0,0,23.756,123ZM21.4154,103.001a19.99,19.99,0,1,0,19.99-19.999A20.0172,20.0172,0,0,0,21.4154,103.001ZM68.44,98.2737H62.8777a21.8981,21.8981,0,0,1,.4253,2.7733h5.6259A19.8072,19.8072,0,0,0,68.44,98.2737Zm-5.2323,7.5456h5.5978a20.0018,20.0018,0,0,0,.2076-2.5292v-.2432h-5.62A22.0925,22.0925,0,0,1,63.2079,105.8193Zm4.6314-9.5455a19.9172,19.9172,0,0,0-1.2154-2.7723H61.2362a21.8645,21.8645,0,0,1,1.1028,2.7723Zm-2.4735-4.7722a20.1321,20.1321,0,0,0-2.35-2.7724H58.1189a22.11,22.11,0,0,1,2.023,2.7724ZM60.617,86.7293a19.8436,19.8436,0,0,0-9.8777-3.6411,22.069,22.069,0,0,1,5.4492,3.6411Zm-9.8778,36.1846a19.908,19.908,0,0,0,12.1768-5.55H58.04A22.1066,22.1066,0,0,1,50.7392,122.9139Zm15.8327-10.3225h-5.38a21.9954,21.9954,0,0,1-1.6083,2.7723H64.72A20.0579,20.0579,0,0,0,66.5719,112.5914Zm1.845-4.7722h-5.56a21.8175,21.8175,0,0,1-.8123,2.7723h5.4785A19.8562,19.8562,0,0,0,68.4169,107.8192ZM58.1813,123h11.857a4.9529,4.9529,0,0,1-1.025-3V112.181A22.1251,22.1251,0,0,1,58.1813,123Zm64.82-75.9964a3.0024,3.0024,0,0,0-2.9985-3H74.0108a3.0024,3.0024,0,0,0-2.9985,3V120a3.0024,3.0024,0,0,0,2.9985,3h45.9917a3.0024,3.0024,0,0,0,2.9985-3ZM76.0117,68.0027V52.0034a3.0025,3.0025,0,0,1,2.9985-3h34.9933a3.0024,3.0024,0,0,1,2.9985,3V68.0027a3.0024,3.0024,0,0,1-2.9985,3H79.01A3.0025,3.0025,0,0,1,76.0117,68.0027Zm1.999,0a1.0007,1.0007,0,0,0,.9995,1h34.9933a1.0007,1.0007,0,0,0,.9995-1V52.0034a1.0007,1.0007,0,0,0-.9995-1H79.01a1.0007,1.0007,0,0,0-.9995,1Zm9.9975,11.9994v6a3.0026,3.0026,0,0,1-2.9985,3H79.01a3.0026,3.0026,0,0,1-2.9985-3v-6a3.0026,3.0026,0,0,1,2.9985-3H85.01A3.0026,3.0026,0,0,1,88.0082,80.0021Zm-1.999,0a1.0007,1.0007,0,0,0-1-1H79.01a1.0007,1.0007,0,0,0-.9995,1v6a1.0007,1.0007,0,0,0,.9995,1H85.01a1.0007,1.0007,0,0,0,1-1Zm1.999,13.9994v6a3.0025,3.0025,0,0,1-2.9985,3H79.01a3.0025,3.0025,0,0,1-2.9985-3v-6a3.0025,3.0025,0,0,1,2.9985-3H85.01A3.0025,3.0025,0,0,1,88.0082,94.0015Zm-1.999,0a1.0007,1.0007,0,0,0-1-1H79.01a1.0007,1.0007,0,0,0-.9995,1v6a1.0007,1.0007,0,0,0,.9995,1H85.01a1.0007,1.0007,0,0,0,1-1Zm31.9923,0v19.999a3.0025,3.0025,0,0,1-2.9985,3h-7.9994a3.0025,3.0025,0,0,1-2.9985-3V94.0015a3.0024,3.0024,0,0,1,2.9985-3h7.9994A3.0024,3.0024,0,0,1,118.0015,94.0015Zm-1.999,0a1.0007,1.0007,0,0,0-.9995-1h-7.9994a1.0007,1.0007,0,0,0-1,1v19.999a1.0008,1.0008,0,0,0,1,1h7.9994a1.0008,1.0008,0,0,0,.9995-1ZM88.0082,108.0008v6a3.0026,3.0026,0,0,1-2.9985,3H79.01a3.0026,3.0026,0,0,1-2.9985-3v-6a3.0026,3.0026,0,0,1,2.9985-3H85.01A3.0026,3.0026,0,0,1,88.0082,108.0008Zm-1.999,0a1.0008,1.0008,0,0,0-1-1H79.01a1.0008,1.0008,0,0,0-.9995,1v6a1.0008,1.0008,0,0,0,.9995,1H85.01a1.0008,1.0008,0,0,0,1-1Zm15.9959-27.9987v6a3.0025,3.0025,0,0,1-2.9985,3H93.0072a3.0025,3.0025,0,0,1-2.9985-3v-6a3.0025,3.0025,0,0,1,2.9985-3h5.9994A3.0025,3.0025,0,0,1,102.0051,80.0021Zm-1.999,0a1.0007,1.0007,0,0,0-.9995-1H93.0072a1.0007,1.0007,0,0,0-.9995,1v6a1.0007,1.0007,0,0,0,.9995,1h5.9994a1.0007,1.0007,0,0,0,.9995-1Zm17.9954,0v6a3.0025,3.0025,0,0,1-2.9985,3h-7.9994a3.0025,3.0025,0,0,1-2.9985-3v-6a3.0025,3.0025,0,0,1,2.9985-3h7.9994A3.0025,3.0025,0,0,1,118.0015,80.0021Zm-1.999,0a1.0007,1.0007,0,0,0-.9995-1h-7.9994a1.0007,1.0007,0,0,0-1,1v6a1.0007,1.0007,0,0,0,1,1h7.9994a1.0007,1.0007,0,0,0,.9995-1ZM102.0051,94.0015v6a3.0024,3.0024,0,0,1-2.9985,3H93.0072a3.0024,3.0024,0,0,1-2.9985-3v-6a3.0024,3.0024,0,0,1,2.9985-3h5.9994A3.0024,3.0024,0,0,1,102.0051,94.0015Zm-1.999,0a1.0007,1.0007,0,0,0-.9995-1H93.0072a1.0007,1.0007,0,0,0-.9995,1v6a1.0007,1.0007,0,0,0,.9995,1h5.9994a1.0007,1.0007,0,0,0,.9995-1Zm1.999,13.9993v6a3.0025,3.0025,0,0,1-2.9985,3H93.0072a3.0025,3.0025,0,0,1-2.9985-3v-6a3.0025,3.0025,0,0,1,2.9985-3h5.9994A3.0025,3.0025,0,0,1,102.0051,108.0008Zm-1.999,0a1.0008,1.0008,0,0,0-.9995-1H93.0072a1.0008,1.0008,0,0,0-.9995,1v6a1.0008,1.0008,0,0,0,.9995,1h5.9994a1.0008,1.0008,0,0,0,.9995-1Zm-65.4747-4.6355a6.1631,6.1631,0,0,1-1.7525-4.55,6.3459,6.3459,0,0,1,5.3372-5.9949v-.2236a2.9115,2.9115,0,0,1,2.9077-2.909h.7633a2.9115,2.9115,0,0,1,2.9077,2.909v.2236a6.3177,6.3177,0,0,1,4.3289,2.8222,2.8089,2.8089,0,0,1,.1005,2.9071,2.9307,2.9307,0,0,1-2.5744,1.537,2.7979,2.7979,0,0,1-2.4075-1.2753.5261.5261,0,0,0-.447-.251h-4.58a.53.53,0,0,0-.5188.6211.5993.5993,0,0,0,.6115.4326h4.24a6.7291,6.7291,0,0,1,4.8306,2.0673,6.1625,6.1625,0,0,1,1.753,4.5505,6.3449,6.3449,0,0,1-5.3367,5.9949v.2236a2.9115,2.9115,0,0,1-2.9077,2.909h-.7633a2.9115,2.9115,0,0,1-2.9077-2.909v-.2236a6.32,6.32,0,0,1-4.3289-2.8222,2.81,2.81,0,0,1-.1-2.909,2.9316,2.9316,0,0,1,2.5734-1.5361,2.8362,2.8362,0,0,1,2.4075,1.2763.527.527,0,0,0,.4476.251h4.58a.53.53,0,0,0,.5183-.622.6061.6061,0,0,0-.6115-.4326H39.363A6.7308,6.7308,0,0,1,34.5314,103.3653ZM34.7759,98.9a4.18,4.18,0,0,0,1.1986,3.0809,4.7192,4.7192,0,0,0,3.3885,1.4521h4.2391a2.6032,2.6032,0,0,1,2.5832,2.1014,2.53,2.53,0,0,1-2.49,2.953h-4.58a2.515,2.515,0,0,1-2.1406-1.1884.8261.8261,0,0,0-.7081-.3389.9255.9255,0,0,0-.8243.4922.8358.8358,0,0,0,.0229.8671,4.33,4.33,0,0,0,3.65,1.9863,1,1,0,0,1,.9995,1v1.1455a.91.91,0,0,0,.9087.9091h.7633a.91.91,0,0,0,.9087-.9091v-1.1455a.9994.9994,0,0,1,1-1,4.3436,4.3436,0,0,0,4.3392-4.1571,4.1787,4.1787,0,0,0-1.1992-3.0818,4.717,4.717,0,0,0-3.3874-1.4521h-4.24a2.6041,2.6041,0,0,1-2.5832-2.1,2.53,2.53,0,0,1,2.49-2.953h4.58a2.5135,2.5135,0,0,1,2.14,1.1884.8263.8263,0,0,0,.7082.3379.9252.9252,0,0,0,.8243-.4931.8346.8346,0,0,0-.023-.8652,4.3294,4.3294,0,0,0-3.65-1.9863.9994.9994,0,0,1-1-1V92.5972a.91.91,0,0,0-.9087-.9091h-.7633a.91.91,0,0,0-.9087.9091v1.1455a1,1,0,0,1-.9995,1,4.3434,4.3434,0,0,0-4.34,4.1571ZM105.9992,39.004h1.999a1,1,0,0,0,0-2h-1.999a1,1,0,0,0,0,2Zm5.997,0h1.999a1,1,0,0,0,0-2h-1.999a1,1,0,0,0,0,2Zm-11.994,0h1.999a1,1,0,0,0,0-2h-1.999a1,1,0,0,0,0,2Zm-5.997,0h1.999a1,1,0,0,0,0-2h-1.999a1,1,0,0,0,0,2Zm-5.997,0h1.999a1,1,0,0,0,0-2h-1.999a1,1,0,0,0,0,2Zm-6.9965-1a1.0028,1.0028,0,0,0,.9995,1H84.01a1,1,0,0,0,0-2h-1.999A1.0029,1.0029,0,0,0,81.0117,38.0041Z" class="color231f20 svgShape"></path></g></svg></g></svg>