<?xml version="1.0" encoding="UTF-8"?>
<svg version="1.1" viewBox="0 0 288 288" xmlns="http://www.w3.org/2000/svg">
<svg width="288" height="288" viewBox="0 0 32 32" xmlns="http://www.w3.org/2000/svg">
<g class="color000 svgShape" transform="translate(-442.99 -1413.4)">
<path class="st8 color8e98b8 svgShape" d="m464.04 1427.2 3.536-4.243c0.58605-0.5861 0.58602-1.5361 2e-5 -2.1211-0.586-0.586-1.536-0.5859-2.121 1e-4l-4.243 3.536 2.828 2.828z" fill="#80c682"/>
<polygon class="st2 colorffd28e svgShape" transform="matrix(0 1 1 0 442.74 1415.1)" points="20.596 8.575 21.303 6.454 24.839 5.747 24.132 9.282 22.01 9.99" fill="#b1dcb2"/>
<path class="st8 color8e98b8 svgShape" d="m461.53 1424.7-1.423 1.0639c-1.205 0.901-2.297 1.9421-3.253 3.104l-5.585 6.784 1.508 1.508 6.76-5.566c1.177-0.9689 2.231-2.0769 3.141-3.302l1.042-1.403" fill="#80c682"/>
<polygon class="st15 color535e84 svgShape" transform="matrix(0 1 1 0 442.74 1415.1)" points="20.55 8.53 22.058 10.037 20.781 11.589 18.999 9.807" fill="#439445"/>
<path class="colorfff svgShape" d="m448.27 1439.7 0.70573-3.5369 2.1213-0.7071 1.0607 1.0606-2.1213 0.7071-0.44057 2.2111-1.3258 0.2652zm2.7829-4.291 5.585-6.7838c0.95597-1.162 2.0474-2.2023 3.2524-3.1033l1.4225-1.0634-0.31489-0.3149 4.2426-3.5355c0.58499-0.586 1.5353-0.586 2.1213 0 0.19434 0.1939 0.31861 0.4289 0.38396 0.6767-0.49985-0.1324-1.0533-0.01-1.4446 0.384l-4.2426 3.5355 0.31489 0.3149-1.4225 1.0634c-1.205 0.901-2.2964 1.9413-3.2524 3.1032l-5.585 6.7838-1.0607-1.0606z" fill="#fff"/>
<path class="color444a54 svgShape" d="m448.13 1440.3c-0.118-0.118-0.17205-0.2883-0.13811-0.4502l0.70711-3.5356c0.035-0.177 0.16285-0.32 0.33287-0.377l1.87-0.6242 5.5629-6.7562c0.98104-1.192 2.1044-2.2645 3.3394-3.1875l0.97918-0.7333c-0.0492-0.08-0.0842-0.1688-0.0732-0.2693 6e-3 -0.1401 0.0712-0.2705 0.17815-0.3605l4.2095-3.5052c0.77902-0.779 2.0494-0.779 2.8284 0 0.394 0.394 0.58969 0.911 0.58972 1.4239-1e-5 0.1806-0.032 0.3597-0.0801 0.5331 0.0677 0.052 0.13605 0.103 0.19747 0.1644 0.394 0.394 0.58976 0.9108 0.58972 1.4239 5e-5 0.5029-0.18694 1.0017-0.55796 1.3728l-3.5355 4.2426c-0.17699 0.2109-0.49029 0.2395-0.70296 0.062-0.21198-0.178-0.24059-0.4923-0.0635-0.7043l3.5659-4.2758c0.39095-0.391 0.39099-1.0232 0-1.4142l-3.5079 4.2095c-0.09 0.108-0.21811 0.1736-0.35908 0.1795-0.0988 0-0.19147-0.029-0.27483-0.079l-0.71125 0.9571c-0.93197 1.255-2.0168 2.3965-3.2248 3.3905l-6.7355 5.545-0.62286 1.8658c-0.057 0.17-0.20142 0.2965-0.37841 0.3315l-3.5342 0.7085c-0.16327 0.033-0.33222-0.02-0.45022-0.1381zm0.98884-0.9888 2.5149-0.5041 0.5179-1.5537-0.97642-0.9765-1.5537 0.5179-0.50271 2.5164zm2.8201-3.6847 0.86593 0.8659 0.77757-0.6394-1.004-1.0041-0.63941 0.7776zm1.2789-1.5524 1.1394 1.1394 4.8572-3.9982c1.145-0.9429 2.1737-2.0261 3.0577-3.2151l0.78445-1.0551-1.5786-1.5786-1.0745 0.8038c-1.172 0.876-2.2368 1.8914-3.1668 3.0204l-4.0189 4.8834zm10.786-7.5958 3.2151-3.856c0.39103-0.391 0.391-1.0232 0-1.4142-0.38901-0.39-1.0231-0.3911-1.446 0.029l-3.8214 3.1861 2.0522 2.0551z" fill="#2f6931"/>
<path class="st21 color1a4875 svgShape" d="m451.04 1437.9c3.6e-4 -0.1283-0.049-0.256-0.14598-0.354-0.195-0.195-0.51204-0.1949-0.70706 1e-4l-2.055 2.055c-0.19495 0.1949-0.19498 0.512 2e-5 0.707s0.51203 0.1949 0.70698 0l2.055-2.055c0.097-0.097 0.14602-0.2251 0.14604-0.3531z" fill="#2c632e"/>
<path class="st21 color444a54 svgShape" d="m451.04 1437.9c3.6e-4 -0.1283-0.049-0.256-0.14598-0.354-0.195-0.195-0.51204-0.1949-0.70706 1e-4l-2.055 2.055c-0.19495 0.1949-0.19498 0.512 2e-5 0.707s0.51203 0.1949 0.70698 0l2.055-2.055c0.097-0.097 0.14602-0.2251 0.14604-0.3531z" fill="#2f6931"/>
</g>
</svg>
</svg>
