<?xml version="1.0" encoding="UTF-8"?>
<svg version="1.1" viewBox="0 0 288 288" xmlns="http://www.w3.org/2000/svg">
<svg width="288" height="288" data-name="Layer 1" viewBox="0 0 64 64" xmlns="http://www.w3.org/2000/svg">
<circle class="coloree2a7b svgShape" cx="32" cy="32" r="27" fill="#ee2a7b"/>
<path class="color262234 svgShape" d="m46.66 38.56c-3.72-4.25-3.22-8.37-3.22-8.37-1-10.92-11-12.37-11.44-12.43-0.44 0.06-10.48 1.52-11.44 12.43 0 0 0.49 4.13-3.22 8.38s14.34 1.85 14.66 1.81 18.34 2.4 14.66-1.82zm2.09 14.6a26.94 26.94 0 0 1-33.5 0l0.75-2.66a9.12 9.12 0 0 1 8.79-6.5h14.42a9.12 9.12 0 0 1 8.79 6.5z" fill="#262234"/>
<path class="colorffd2b4 svgShape" d="M32,15.21C43,15.21,42.1,26,42.1,26c1.62-.17,2.9.49,2.9,2.86s-1,2.86-2.26,3a.28.28,0,0,0-.26.27c-.38,3.69-2.9,6.39-5.38,8.2a8.59,8.59,0,0,1-10.19,0c-2.48-1.81-5-4.52-5.38-8.2a.28.28,0,0,0-.26-.27c-1.27-.13-2.26-.63-2.26-3s1.22-3,2.84-2.86C21.84,26,20.94,15.21,32,15.21Z" fill="#ffd2b4"/>
<path class="color262234 svgShape" d="M43.5,22.2C43,15.34,36.87,13,32,13S21,15.34,20.5,22.2a11.32,11.32,0,0,0,.1,3.42A31.62,31.62,0,0,0,21,29.26c.18.78,1.07.75,1.19.05a22.32,22.32,0,0,1,2.52-8.39l.8,2.69a1,1,0,0,0,1,.71H37.58a1,1,0,0,0,1-.71l.8-2.68a22.33,22.33,0,0,1,2.51,8.37c.11.7,1,.73,1.19-.05a30.77,30.77,0,0,0,.34-3.57A11.23,11.23,0,0,0,43.5,22.2Z" fill="#262234"/>
<path class="colorffd2b4 svgShape" d="m36 39v5.76a2 2 0 0 1-1.11 1.8 6.46 6.46 0 0 1-5.78 0 2 2 0 0 1-1.11-1.8v-5.76z" fill="#ffd2b4"/>
<path class="colorfff svgShape" d="M36,44v.76a2,2,0,0,1-1.11,1.8,6.48,6.48,0,0,1-5.78,0A2,2,0,0,1,28,44.76V44H26v.76a4,4,0,0,0,2.22,3.58,8.39,8.39,0,0,0,7.56,0A4,4,0,0,0,38,44.76V44Z" fill="#fff" opacity=".2"/>
<path class="color262234 svgShape" d="m36 41.08v1.5a9.16 9.16 0 0 1-8 0v-1.5a9.16 9.16 0 0 0 8 0z" fill="#262234" opacity=".1"/>
</svg>
</svg>
